<?xml version="1.0" encoding="utf-8"?>
<!-- Generator: Adobe Illustrator 16.0.0, SVG Export Plug-In . SVG Version: 6.00 Build 0)  -->
<!DOCTYPE svg PUBLIC "-//W3C//DTD SVG 1.1//EN" "http://www.w3.org/Graphics/SVG/1.1/DTD/svg11.dtd">
<svg version="1.1" id="Layer_1" xmlns="http://www.w3.org/2000/svg" xmlns:xlink="http://www.w3.org/1999/xlink" x="0px" y="0px"
	 width="20.69px" height="22.11px" viewBox="14.655 9.409 20.69 22.11" enable-background="new 14.655 9.409 20.69 22.11"
	 xml:space="preserve">
<path fill="#FFFFFF" d="M27.687,24.729c-0.08-0.878-0.049-1.49-0.049-2.292c0.396-0.208,1.108-1.538,1.229-2.661
	c0.312-0.026,0.805-0.331,0.947-1.535c0.077-0.646-0.229-1.01-0.418-1.124c0.509-1.529,1.565-6.262-1.954-6.75
	c-0.36-0.636-1.288-0.958-2.494-0.958c-4.819,0.088-5.402,3.64-4.345,7.708c-0.188,0.114-0.499,0.478-0.42,1.124
	c0.146,1.204,0.637,1.509,0.95,1.535c0.12,1.124,0.86,2.453,1.259,2.661c0,0.802,0.03,1.414-0.05,2.292
	c-0.954,2.565-7.391,1.845-7.688,6.791h20.69C35.049,26.573,28.64,27.294,27.687,24.729z"/>
</svg>
