<?xml version="1.0" encoding="utf-8"?>
<!-- Generator: Adobe Illustrator 16.0.0, SVG Export Plug-In . SVG Version: 6.00 Build 0)  -->
<!DOCTYPE svg PUBLIC "-//W3C//DTD SVG 1.1//EN" "http://www.w3.org/Graphics/SVG/1.1/DTD/svg11.dtd">
<svg version="1.1" id="Modo_de_aislamiento" xmlns="http://www.w3.org/2000/svg" xmlns:xlink="http://www.w3.org/1999/xlink"
	 x="0px" y="0px" width="22.109px" height="22.109px" viewBox="0 0 22.109 22.109" enable-background="new 0 0 22.109 22.109"
	 xml:space="preserve">
<g>
	<path fill="#FFFFFF" d="M19.614,1.924h-1.996V1.429c0-0.788-0.641-1.429-1.43-1.429c-0.785,0-1.43,0.641-1.43,1.429v0.496h-2.273
		V1.429C12.485,0.641,11.844,0,11.055,0c-0.788,0-1.431,0.641-1.431,1.429v0.496H7.35V1.429C7.35,0.641,6.709,0,5.921,0
		s-1.43,0.641-1.43,1.429v0.496H2.498C1.121,1.925,0,3.046,0,4.424V19.61c0,1.379,1.121,2.5,2.498,2.5h17.116
		c1.375,0,2.496-1.121,2.496-2.5V4.423C22.11,3.045,20.989,1.924,19.614,1.924z M5.921,5.708c0.788,0,1.43-0.641,1.43-1.43V3.783
		h2.274v0.496c0,0.789,0.643,1.43,1.431,1.43c0.789,0,1.429-0.641,1.429-1.43V3.783h2.273v0.496c0,0.789,0.645,1.43,1.43,1.43
		c0.789,0,1.43-0.641,1.43-1.43V3.783h2.638v16.469H1.857V3.783h2.634v0.496C4.492,5.067,5.133,5.708,5.921,5.708z"/>
	<rect x="5.279" y="8.488" fill="#FFFFFF" width="2.567" height="1.926"/>
	<rect x="5.279" y="11.696" fill="#FFFFFF" width="2.567" height="1.927"/>
	<rect x="5.279" y="14.903" fill="#FFFFFF" width="2.567" height="1.927"/>
	<rect x="9.771" y="14.903" fill="#FFFFFF" width="2.567" height="1.927"/>
	<rect x="9.771" y="11.696" fill="#FFFFFF" width="2.567" height="1.927"/>
	<rect x="9.771" y="8.488" fill="#FFFFFF" width="2.567" height="1.926"/>
	<rect x="14.264" y="14.903" fill="#FFFFFF" width="2.566" height="1.927"/>
	<rect x="14.264" y="11.696" fill="#FFFFFF" width="2.566" height="1.927"/>
	<rect x="14.264" y="8.488" fill="#FFFFFF" width="2.566" height="1.926"/>
</g>
</svg>
