<?xml version="1.0" encoding="utf-8"?>
<!-- Generator: Adobe Illustrator 16.0.0, SVG Export Plug-In . SVG Version: 6.00 Build 0)  -->
<!DOCTYPE svg PUBLIC "-//W3C//DTD SVG 1.1//EN" "http://www.w3.org/Graphics/SVG/1.1/DTD/svg11.dtd">
<svg version="1.1" id="Layer_1" xmlns="http://www.w3.org/2000/svg" xmlns:xlink="http://www.w3.org/1999/xlink" x="0px" y="0px"
	 width="22.11px" height="22.111px" viewBox="13.21 12.811 22.11 22.111" enable-background="new 13.21 12.811 22.11 22.111"
	 xml:space="preserve">
<g>
	<g>
		<path fill="#808080" d="M24.266,34.922c-6.096,0-11.056-4.96-11.056-11.055c0-6.096,4.96-11.056,11.056-11.056
			s11.055,4.96,11.055,11.056C35.32,29.962,30.361,34.922,24.266,34.922z M24.266,15.268c-4.741,0-8.598,3.857-8.598,8.599
			c0,4.742,3.857,8.598,8.598,8.598s8.599-3.856,8.599-8.598C32.864,19.125,29.007,15.268,24.266,15.268z"/>
	</g>
	<g>
		<path fill="#808080" d="M24.735,21.457h-0.94c-0.311,0-0.556,0.243-0.556,0.556v6.741c0,0.312,0.245,0.556,0.556,0.556h0.94
			c0.312,0,0.557-0.243,0.557-0.556v-6.741C25.292,21.7,25.047,21.457,24.735,21.457z"/>
		<path fill="#808080" d="M24.765,18.504h-0.999c-0.312,0-0.556,0.245-0.556,0.557v1.072c0,0.316,0.239,0.557,0.556,0.557h0.999
			c0.311,0,0.556-0.244,0.556-0.557v-1.072C25.32,18.749,25.076,18.504,24.765,18.504z"/>
	</g>
</g>
</svg>
