<?xml version="1.0" encoding="utf-8"?>
<!-- Generator: Adobe Illustrator 16.0.0, SVG Export Plug-In . SVG Version: 6.00 Build 0)  -->
<!DOCTYPE svg PUBLIC "-//W3C//DTD SVG 1.1//EN" "http://www.w3.org/Graphics/SVG/1.1/DTD/svg11.dtd">
<svg version="1.1" id="Layer_1" xmlns="http://www.w3.org/2000/svg" xmlns:xlink="http://www.w3.org/1999/xlink" x="0px" y="0px"
	 width="15.541px" height="13.039px" viewBox="241.042 455.011 15.541 13.039"
	 enable-background="new 241.042 455.011 15.541 13.039" xml:space="preserve">
<g>
	<path fill="#FFFFFF" d="M255.357,455.011h-10.731l0,0c-0.6,0-1.087,0.486-1.087,1.086v10.866c0,0.601,0.487,1.087,1.087,1.087
		h1.641v-4.352c0-0.198,0.161-0.359,0.358-0.359h6.897c0.198,0,0.359,0.161,0.359,0.359v4.352h1.61c0.601,0,1.087-0.486,1.087-1.087
		V456.21C256.579,456.21,256.711,455.011,255.357,455.011z M248.277,456.668h6.272c0.332,0,0.599,0.266,0.599,0.598v2.01
		c0,0.331-0.267,0.598-0.599,0.598h-8.935c-0.332,0-0.598-0.267-0.598-0.598v-2.01c0-0.332,0.267-0.598,0.598-0.598h0.76H248.277z"
		/>
	<path fill="#FFFFFF" d="M249.954,467.685c0,0.198-0.161,0.358-0.359,0.358h-1.974c-0.198,0-0.358-0.16-0.358-0.358v-1.714
		c0-0.198,0.16-0.359,0.358-0.359h1.974c0.198,0,0.359,0.161,0.359,0.359V467.685z"/>
</g>
</svg>
