<?xml version="1.0" encoding="utf-8"?>
<!-- Generator: Adobe Illustrator 16.0.0, SVG Export Plug-In . SVG Version: 6.00 Build 0)  -->
<!DOCTYPE svg PUBLIC "-//W3C//DTD SVG 1.1//EN" "http://www.w3.org/Graphics/SVG/1.1/DTD/svg11.dtd">
<svg version="1.1" id="Layer_1" xmlns="http://www.w3.org/2000/svg" xmlns:xlink="http://www.w3.org/1999/xlink" x="0px" y="0px"
	 width="13.046px" height="13.039px" viewBox="250.819 446.356 13.046 13.039"
	 enable-background="new 250.819 446.356 13.046 13.039" xml:space="preserve">
<path fill="#FFFFFF" d="M263.444,457.571l-3.328-3.329l0.053-0.073l0.006-0.009c0.52-0.817,0.794-1.759,0.794-2.725
	c0-2.801-2.276-5.079-5.073-5.079c-2.799,0-5.076,2.278-5.076,5.079s2.276,5.079,5.073,5.079c0.981,0,1.936-0.281,2.758-0.813
	l0.073-0.051l3.331,3.33c0.342,0.343,0.674,0.415,0.892,0.415l0,0c0.374,0,0.707-0.22,0.848-0.559
	C263.961,458.431,263.831,457.958,263.444,457.571z M259.511,451.432c0,0.964-0.376,1.87-1.058,2.552s-1.588,1.057-2.552,1.057
	c-0.965,0-1.871-0.375-2.553-1.057s-1.057-1.588-1.057-2.552c0-0.965,0.375-1.871,1.057-2.553s1.588-1.057,2.553-1.057
	c0.964,0,1.87,0.375,2.552,1.057S259.511,450.467,259.511,451.432z"/>
</svg>
