<?xml version="1.0" encoding="utf-8"?>
<!-- Generator: Adobe Illustrator 16.0.0, SVG Export Plug-In . SVG Version: 6.00 Build 0)  -->
<!DOCTYPE svg PUBLIC "-//W3C//DTD SVG 1.1//EN" "http://www.w3.org/Graphics/SVG/1.1/DTD/svg11.dtd">
<svg version="1.1" id="Layer_1" xmlns="http://www.w3.org/2000/svg" xmlns:xlink="http://www.w3.org/1999/xlink" x="0px" y="0px"
	 width="17.392px" height="13.04px" viewBox="3.303 7.942 17.392 13.04" enable-background="new 3.303 7.942 17.392 13.04"
	 xml:space="preserve">
<path fill="#FFFFFF" d="M18.995,8.103c-0.212-0.214-0.558-0.214-0.769,0l-8.104,8.065c-0.212,0.215-0.558,0.215-0.77,0l-3.55-3.615
	c-0.105-0.107-0.243-0.161-0.381-0.161c-0.14-0.001-0.282,0.053-0.388,0.161l-1.569,1.41c-0.105,0.107-0.161,0.241-0.161,0.381
	c0,0.141,0.056,0.289,0.162,0.395l3.58,3.757c0.212,0.215,0.559,0.562,0.77,0.775l1.539,1.552c0.212,0.213,0.557,0.213,0.769,0
	L20.535,10.43c0.212-0.213,0.212-0.563,0-0.776L18.995,8.103z"/>
</svg>
