<?xml version="1.0" encoding="utf-8"?>
<!-- Generator: Adobe Illustrator 16.0.0, SVG Export Plug-In . SVG Version: 6.00 Build 0)  -->
<!DOCTYPE svg PUBLIC "-//W3C//DTD SVG 1.1//EN" "http://www.w3.org/Graphics/SVG/1.1/DTD/svg11.dtd">
<svg version="1.1" id="Capa_1" xmlns="http://www.w3.org/2000/svg" xmlns:xlink="http://www.w3.org/1999/xlink" x="0px" y="0px"
	 width="23.041px" height="23px" viewBox="0 0 23.041 23" enable-background="new 0 0 23.041 23" xml:space="preserve">
<path fill="#808080" d="M22.25,19.805l-5.862-5.868l0.091-0.129l0.01-0.015c0.915-1.44,1.399-3.102,1.399-4.803
	c0-4.936-4.012-8.952-8.941-8.952C4.014,0.038,0,4.054,0,8.99c0,4.936,4.011,8.953,8.941,8.953c1.73,0,3.411-0.496,4.861-1.434
	l0.129-0.09l5.869,5.869c0.604,0.604,1.189,0.731,1.572,0.731l0,0c0.66,0,1.247-0.387,1.494-0.985
	C23.163,21.32,22.933,20.487,22.25,19.805z M15.318,8.984c0,1.699-0.661,3.297-1.862,4.499c-1.201,1.201-2.799,1.862-4.498,1.862
	c-1.7,0-3.297-0.661-4.499-1.862c-1.201-1.202-1.862-2.8-1.862-4.499c0-1.7,0.661-3.297,1.862-4.499
	c1.202-1.201,2.799-1.862,4.499-1.862c1.699,0,3.297,0.661,4.498,1.862S15.318,7.285,15.318,8.984z"/>
</svg>
