<?xml version="1.0" encoding="utf-8"?>
<!-- Generator: Adobe Illustrator 16.0.0, SVG Export Plug-In . SVG Version: 6.00 Build 0)  -->
<!DOCTYPE svg PUBLIC "-//W3C//DTD SVG 1.1//EN" "http://www.w3.org/Graphics/SVG/1.1/DTD/svg11.dtd">
<svg version="1.1" id="Layer_1" xmlns="http://www.w3.org/2000/svg" xmlns:xlink="http://www.w3.org/1999/xlink" x="0px" y="0px"
	 width="22.111px" height="16.577px" viewBox="0.943 4.404 22.111 16.577" enable-background="new 0.943 4.404 22.111 16.577"
	 xml:space="preserve">
<path fill="#6C9015" d="M20.894,4.608c-0.271-0.272-0.709-0.272-0.978,0L9.613,14.862c-0.27,0.273-0.71,0.273-0.979,0l-4.514-4.597
	c-0.134-0.136-0.309-0.204-0.485-0.205c-0.177-0.001-0.358,0.066-0.493,0.205l-1.995,1.793c-0.133,0.136-0.205,0.307-0.205,0.484
	c0,0.179,0.072,0.366,0.206,0.502l4.552,4.775c0.269,0.273,0.71,0.716,0.979,0.986l1.957,1.973c0.27,0.27,0.708,0.27,0.978,0
	L22.852,7.567c0.27-0.271,0.27-0.716,0-0.987L20.894,4.608z"/>
</svg>
