<?xml version="1.0" encoding="utf-8"?>
<!-- Generator: Adobe Illustrator 16.0.0, SVG Export Plug-In . SVG Version: 6.00 Build 0)  -->
<!DOCTYPE svg PUBLIC "-//W3C//DTD SVG 1.1//EN" "http://www.w3.org/Graphics/SVG/1.1/DTD/svg11.dtd">
<svg version="1.1" id="Capa_1" xmlns="http://www.w3.org/2000/svg" xmlns:xlink="http://www.w3.org/1999/xlink" x="0px" y="0px"
	 width="22.11px" height="18.799px" viewBox="4.943 8.201 22.11 18.799" enable-background="new 4.943 8.201 22.11 18.799"
	 xml:space="preserve">
<g id="Icons_new_Arranged_Names">
	<g id="_x31_01_Warning">
		<path id="Triangle_29" fill="#EE5B03" d="M14.647,9.106c0.747-1.208,1.959-1.205,2.702,0l9.257,14.974
			c0.997,1.612,0.271,2.92-1.621,2.92H7.013c-1.892,0-2.621-1.303-1.621-2.92L14.647,9.106z M16,20.993
			c0.474,0,0.858-0.39,0.858-0.856v-5.154c0-0.472-0.381-0.855-0.858-0.855c-0.474,0-0.858,0.389-0.858,0.855v5.154
			C15.142,20.609,15.522,20.993,16,20.993z M16,24.426c0.474,0,0.858-0.384,0.858-0.858S16.474,22.709,16,22.709
			s-0.858,0.384-0.858,0.858S15.526,24.426,16,24.426z"/>
	</g>
</g>
</svg>
