<?xml version="1.0" encoding="utf-8"?>
<!-- Generator: Adobe Illustrator 16.0.0, SVG Export Plug-In . SVG Version: 6.00 Build 0)  -->
<!DOCTYPE svg PUBLIC "-//W3C//DTD SVG 1.1//EN" "http://www.w3.org/Graphics/SVG/1.1/DTD/svg11.dtd">
<svg version="1.1" id="Capa_1" xmlns="http://www.w3.org/2000/svg" xmlns:xlink="http://www.w3.org/1999/xlink" x="0px" y="0px"
	 width="17.947px" height="20.055px" viewBox="0 0 17.947 20.055" enable-background="new 0 0 17.947 20.055" xml:space="preserve">
<path fill="#FFFFFF" d="M6.769,12.925l0.039,6.614c0,0,0.154,0.773,0.619,0.426c0.464-0.348,3.52-3.018,3.52-3.018
	s0.116-0.115,0.154-0.502c0.039-0.387,0.039-3.481,0.039-3.481l6.729-9.863c0.051-0.12,0.079-0.243,0.079-0.368
	c0-1.549-4.018-2.804-8.974-2.804S0,1.184,0,2.732C0,2.857,0.028,2.98,0.079,3.101L6.769,12.925z M8.993,4.454
	c-4.219,0-7.639-0.779-7.639-1.74c0-0.962,3.42-1.741,7.639-1.741s7.639,0.779,7.639,1.741C16.632,3.675,13.212,4.454,8.993,4.454z"
	/>
</svg>
