<?xml version="1.0" encoding="utf-8"?>
<!-- Generator: Adobe Illustrator 16.0.0, SVG Export Plug-In . SVG Version: 6.00 Build 0)  -->
<!DOCTYPE svg PUBLIC "-//W3C//DTD SVG 1.1//EN" "http://www.w3.org/Graphics/SVG/1.1/DTD/svg11.dtd">
<svg version="1.1" id="Layer_1" xmlns="http://www.w3.org/2000/svg" xmlns:xlink="http://www.w3.org/1999/xlink" x="0px" y="0px"
	 width="26px" height="18.571px" viewBox="3 7.429 26 18.571" enable-background="new 3 7.429 26 18.571" xml:space="preserve">
<path fill="#FFFFFF" d="M4.857,11.143h22.286c1.025,0,1.857-0.832,1.857-1.857c0-1.025-0.832-1.857-1.857-1.857H4.857
	C3.832,7.429,3,8.261,3,9.286C3,10.311,3.832,11.143,4.857,11.143z M27.143,14.857H4.857C3.832,14.857,3,15.689,3,16.714
	c0,1.025,0.832,1.857,1.857,1.857h22.286c1.025,0,1.857-0.832,1.857-1.857C29,15.689,28.168,14.857,27.143,14.857z M27.143,22.286
	H4.857C3.832,22.286,3,23.119,3,24.143C3,25.168,3.832,26,4.857,26h22.286C28.168,26,29,25.168,29,24.143
	C29,23.119,28.168,22.286,27.143,22.286z"/>
</svg>
